<mxfile host="app.diagrams.net" modified="2022-05-25T14:47:15.669Z" agent="5.0 (Macintosh; Intel Mac OS X 10_15_7) AppleWebKit/537.36 (KHTML, like Gecko) Chrome/100.0.4896.127 Safari/537.36" etag="FAM4KqMo6Cw4FqzUo0h8" version="18.0.2" type="github">
  <diagram name="Page-1" id="3e8102d1-ef87-2e61-34e1-82d9a586fe2e">
    <mxGraphModel dx="1298" dy="758" grid="1" gridSize="10" guides="1" tooltips="1" connect="1" arrows="1" fold="1" page="1" pageScale="1" pageWidth="1100" pageHeight="850" background="none" math="0" shadow="0">
      <root>
        <mxCell id="0" />
        <mxCell id="1" parent="0" />
        <mxCell id="70666756c84bb93c-1" value="" style="ellipse;whiteSpace=wrap;html=1;rounded=0;shadow=0;comic=0;strokeWidth=1;fontFamily=Verdana;fontSize=14;strokeColor=none;fillColor=#0069D1;" parent="1" vertex="1">
          <mxGeometry x="280" y="110" width="500" height="500" as="geometry" />
        </mxCell>
        <mxCell id="70666756c84bb93c-2" value="AI驱动&lt;br&gt;&lt;div&gt;智能博弈风控平台&lt;/div&gt;" style="ellipse;whiteSpace=wrap;html=1;rounded=0;shadow=0;comic=0;strokeWidth=1;fontFamily=Verdana;fontSize=22;strokeColor=none;fillColor=#ffffff;fontColor=#0069D1;fontStyle=1" parent="1" vertex="1">
          <mxGeometry x="400" y="230" width="260" height="260" as="geometry" />
        </mxCell>
        <mxCell id="70666756c84bb93c-5" value="Community" style="shadow=0;dashed=0;html=1;strokeColor=none;fillColor=#ffffff;labelPosition=center;verticalLabelPosition=bottom;verticalAlign=top;shape=mxgraph.office.users.users;rounded=0;comic=0;fontFamily=Verdana;fontSize=14;fontColor=#FFFFFF;" parent="1" vertex="1">
          <mxGeometry x="350" y="440" width="46" height="50" as="geometry" />
        </mxCell>
        <mxCell id="70666756c84bb93c-6" value="Customer&lt;div&gt;Service&lt;/div&gt;" style="shadow=0;dashed=0;html=1;strokeColor=none;fillColor=#ffffff;labelPosition=center;verticalLabelPosition=bottom;verticalAlign=top;shape=mxgraph.office.users.call_center_agent;rounded=0;comic=0;fontFamily=Verdana;fontSize=14;fontColor=#FFFFFF;" parent="1" vertex="1">
          <mxGeometry x="676" y="413" width="46" height="55" as="geometry" />
        </mxCell>
        <mxCell id="70666756c84bb93c-7" value="Response&lt;div&gt;Group&lt;/div&gt;" style="shadow=0;dashed=0;html=1;strokeColor=none;fillColor=#ffffff;labelPosition=center;verticalLabelPosition=bottom;verticalAlign=top;shape=mxgraph.office.users.response_group;rounded=0;comic=0;fontFamily=Verdana;fontSize=14;fontColor=#FFFFFF;" parent="1" vertex="1">
          <mxGeometry x="350" y="203" width="58" height="54" as="geometry" />
        </mxCell>
        <mxCell id="70666756c84bb93c-8" value="Central&lt;div&gt;Management&lt;/div&gt;&lt;div&gt;Service&lt;/div&gt;" style="shadow=0;dashed=0;html=1;strokeColor=none;fillColor=#ffffff;labelPosition=center;verticalLabelPosition=bottom;verticalAlign=top;shape=mxgraph.office.services.central_management_service;rounded=0;comic=0;fontFamily=Verdana;fontSize=14;fontColor=#FFFFFF;" parent="1" vertex="1">
          <mxGeometry x="317" y="313" width="51" height="54" as="geometry" />
        </mxCell>
        <mxCell id="70666756c84bb93c-9" value="Digital&lt;div&gt;Development&lt;/div&gt;" style="shadow=0;dashed=0;html=1;strokeColor=none;fillColor=#ffffff;labelPosition=center;verticalLabelPosition=bottom;verticalAlign=top;shape=mxgraph.office.servers.on_premises_server;rounded=0;comic=0;fontFamily=Verdana;fontSize=14;fontColor=#FFFFFF;" parent="1" vertex="1">
          <mxGeometry x="700" y="282" width="44" height="58" as="geometry" />
        </mxCell>
        <mxCell id="70666756c84bb93c-10" value="Technology&lt;div&gt;Certificates&lt;/div&gt;" style="shadow=0;dashed=0;html=1;strokeColor=none;fillColor=#ffffff;labelPosition=center;verticalLabelPosition=bottom;verticalAlign=top;shape=mxgraph.office.security.token_service;rounded=0;comic=0;fontFamily=Verdana;fontSize=14;fontColor=#FFFFFF;" parent="1" vertex="1">
          <mxGeometry x="450" y="492" width="60" height="56" as="geometry" />
        </mxCell>
        <mxCell id="70666756c84bb93c-11" value="Infrastructure" style="shadow=0;dashed=0;html=1;strokeColor=none;fillColor=#ffffff;labelPosition=center;verticalLabelPosition=bottom;verticalAlign=top;shape=mxgraph.office.concepts.on_premises;rounded=0;comic=0;fontFamily=Verdana;fontSize=14;fontColor=#FFFFFF;" parent="1" vertex="1">
          <mxGeometry x="593" y="490" width="34" height="55" as="geometry" />
        </mxCell>
        <mxCell id="70666756c84bb93c-12" value="Global&lt;div&gt;Partnerships&lt;/div&gt;" style="shadow=0;dashed=0;html=1;strokeColor=none;fillColor=#ffffff;labelPosition=center;verticalLabelPosition=bottom;verticalAlign=top;shape=mxgraph.office.concepts.globe_internet;rounded=0;comic=0;fontFamily=Verdana;fontSize=14;fontColor=#FFFFFF;" parent="1" vertex="1">
          <mxGeometry x="441" y="140" width="49" height="49" as="geometry" />
        </mxCell>
        <mxCell id="70666756c84bb93c-13" value="&lt;span style=&quot;background-color: initial;&quot;&gt;模型自生产&lt;/span&gt;" style="shadow=0;dashed=0;html=1;strokeColor=none;shape=mxgraph.mscae.general.continuous_cycle;fillColor=#ffffff;rounded=0;comic=0;fontFamily=Verdana;fontSize=14;fontColor=#FFFFFF;verticalAlign=top;labelPosition=center;verticalLabelPosition=bottom;align=center;" parent="1" vertex="1">
          <mxGeometry x="550" y="135" width="48" height="50" as="geometry" />
        </mxCell>
      </root>
    </mxGraphModel>
  </diagram>
</mxfile>
